<?xml version="1.0" encoding="UTF-8" standalone="no"?>
<!-- Created with Inkscape (http://www.inkscape.org/) -->

<svg
   width="210mm"
   height="297mm"
   viewBox="0 0 210 297"
   version="1.1"
   id="svg1"
   inkscape:version="1.3.2 (091e20e, 2023-11-25, custom)"
   sodipodi:docname="StellarNexusLogos2.svg"
   xmlns:inkscape="http://www.inkscape.org/namespaces/inkscape"
   xmlns:sodipodi="http://sodipodi.sourceforge.net/DTD/sodipodi-0.dtd"
   xmlns:xlink="http://www.w3.org/1999/xlink"
   xmlns="http://www.w3.org/2000/svg"
   xmlns:svg="http://www.w3.org/2000/svg">
  <sodipodi:namedview
     id="namedview1"
     pagecolor="#ffffff"
     bordercolor="#000000"
     borderopacity="0.25"
     inkscape:showpageshadow="2"
     inkscape:pageopacity="0.0"
     inkscape:pagecheckerboard="0"
     inkscape:deskcolor="#d1d1d1"
     inkscape:document-units="mm"
     inkscape:zoom="1.0570195"
     inkscape:cx="260.1655"
     inkscape:cy="548.23966"
     inkscape:window-width="1920"
     inkscape:window-height="1017"
     inkscape:window-x="-8"
     inkscape:window-y="-8"
     inkscape:window-maximized="1"
     inkscape:current-layer="layer1" />
  <defs
     id="defs1" />
  <g
     inkscape:label="Layer 1"
     inkscape:groupmode="layer"
     id="layer1">
    <path
       id="path6"
       style="fill:#ff5e5b;stroke:none;stroke-width:0.284446;paint-order:markers fill stroke;fill-opacity:1"
       d="m 95.625611,69.841675 a 9.021903,9.021903 0 0 0 -2.032438,5.678206 9.021903,9.021903 0 0 0 9.022187,9.022188 9.021903,9.021903 0 0 0 7.43055,-3.93206 z" />
    <ellipse
       style="fill:#ffed66;stroke:#d4aa00;stroke-width:0.534001;stroke-opacity:1;-inkscape-stroke:none;fill-opacity:1"
       id="ellipse6"
       cx="127.43979"
       cy="-1.105405"
       rx="14.716801"
       ry="2.5887241"
       transform="matrix(0.80125226,0.59832668,-0.61465243,0.78879807,0,0)" />
    <path
       id="path7"
       style="fill:#ff5e5b;stroke:none;stroke-width:0.284446;paint-order:markers fill stroke;fill-opacity:1"
       d="m 95.625611,69.841675 14.420299,10.768334 a 9.021903,9.021903 0 0 0 1.59112,-5.090128 9.021903,9.021903 0 0 0 -9.02167,-9.021672 9.021903,9.021903 0 0 0 -6.989749,3.343466 z" />
    <ellipse
       style="fill:#ffcc00;stroke:#d4aa00;stroke-width:0.534001;stroke-opacity:1;-inkscape-stroke:none"
       id="path3"
       cx="89.836189"
       cy="-12.839943"
       rx="14.716801"
       ry="2.5887241"
       transform="matrix(0.80125226,0.59832668,-0.61465243,0.78879807,0,0)" />
    <circle
       style="fill:#d35f5f;stroke:#000000;stroke-width:0.284446;stroke-dasharray:none;stroke-opacity:1;paint-order:markers fill stroke"
       id="path2"
       cx="79.873558"
       cy="44.082157"
       r="9.021903" />
    <path
       id="path2-3"
       style="fill:#d35f5f;stroke:none;stroke-width:0.284446;paint-order:markers fill stroke"
       d="m 101.67033,36.731959 a 9.021903,9.021903 0 0 0 -2.032438,5.678206 9.021903,9.021903 0 0 0 9.022188,9.022188 9.021903,9.021903 0 0 0 7.43055,-3.93206 z" />
    <ellipse
       style="fill:#ffcc00;stroke:#d4aa00;stroke-width:0.534001;stroke-opacity:1;-inkscape-stroke:none"
       id="path3-1"
       cx="111.8536"
       cy="-31.257713"
       rx="14.716801"
       ry="2.5887241"
       transform="matrix(0.80125226,0.59832668,-0.61465243,0.78879807,0,0)" />
    <path
       id="path5"
       style="fill:#d35f5f;stroke:none;stroke-width:0.284446;paint-order:markers fill stroke"
       d="m 101.67033,36.731959 14.4203,10.768334 a 9.021903,9.021903 0 0 0 1.59112,-5.090128 9.021903,9.021903 0 0 0 -9.02167,-9.021672 9.021903,9.021903 0 0 0 -6.98975,3.343466 z" />
    <path
       style="font-weight:bold;font-size:25.4px;font-family:'Century Gothic';-inkscape-font-specification:'Century Gothic, Bold';font-variation-settings:'wdth' 75, 'wght' 600;fill:#345995;stroke-width:0.446;fill-opacity:1"
       d="m 89.024164,68.278344 -2.567285,2.269629 q -1.351855,-1.885156 -2.75332,-1.885156 -0.682129,0 -1.116211,0.37207 -0.434082,0.359668 -0.434082,0.818555 0,0.458886 0.310058,0.868164 0.42168,0.545703 2.542481,2.344042 1.984375,1.661915 2.406055,2.095997 1.054199,1.066601 1.488281,2.046386 0.446484,0.967383 0.446484,2.120801 0,2.244824 -1.550293,3.708301 -1.550293,1.463476 -4.043164,1.463476 -1.947168,0 -3.398242,-0.95498 -1.438672,-0.954981 -2.468066,-3.001367 l 2.91455,-1.761133 q 1.314649,2.418457 3.026172,2.418457 0.892969,0 1.500684,-0.520899 0.607715,-0.520898 0.607715,-1.203027 0,-0.620117 -0.458887,-1.240234 -0.458887,-0.620117 -2.021582,-1.897559 -2.976562,-2.430859 -3.844727,-3.745508 -0.868164,-1.32705 -0.868164,-2.641699 0,-1.897558 1.438672,-3.249414 1.451074,-1.364258 3.571875,-1.364258 1.364258,0 2.59209,0.63252 1.240234,0.632519 2.678906,2.306836 z"
       id="text1" />
    <path
       style="font-weight:bold;font-size:25.4px;font-family:'Century Gothic';-inkscape-font-specification:'Century Gothic, Bold';font-variation-settings:'wdth' 75, 'wght' 600;fill:#345995;stroke-width:0.446;fill-opacity:1"
       d="m 86.117165,66.256761 h 3.323828 L 97.266874,78.26223 V 66.256761 h 3.472646 V 84.500609 H 97.403294 L 89.589821,72.532347 v 11.968262 h -3.472656 z"
       id="path1" />
    <ellipse
       style="fill:#ffcc00;stroke:#d4aa00;stroke-width:0.534001;stroke-opacity:1;-inkscape-stroke:none"
       id="ellipse3"
       cx="133.59187"
       cy="-43.237011"
       rx="14.716801"
       ry="2.5887241"
       transform="matrix(0.80125226,0.59832668,-0.61465243,0.78879807,0,0)" />
    <path
       id="path8"
       style="font-weight:bold;font-size:25.4px;font-family:'Century Gothic';-inkscape-font-specification:'Century Gothic, Bold';font-variation-settings:'wdth' 75, 'wght' 600;fill:#345995;fill-opacity:1;stroke-width:0.446"
       d="m 85.587891,66.255859 c 0,6.257813 0,12.515625 0,18.773438 1.510416,0 3.020833,0 4.53125,0 0,-3.572266 0,-7.144531 0,-10.716797 2.331891,3.572357 4.664894,7.143989 6.996093,10.716797 1.384766,0 2.769532,0 4.154296,0 0,-6.434245 0,-12.86849 0,-19.302735 -1.510415,10e-7 -3.020832,0 -4.531249,0 0,3.584636 0,7.169271 0,10.753907 -2.336506,-3.584689 -4.673669,-7.16895 -7.009765,-10.753907 -1.380209,0 -2.760417,0 -4.140625,0 0,0.176433 0,0.352865 0,0.529297 z" />
    <text
       xml:space="preserve"
       style="font-style:normal;font-variant:normal;font-weight:bold;font-stretch:normal;font-size:6.35px;line-height:normal;font-family:'Century Gothic';-inkscape-font-specification:'Century Gothic, Bold';font-variant-ligatures:normal;font-variant-caps:normal;font-variant-numeric:normal;font-variant-east-asian:normal;text-decoration-color:#000000;fill:#333333;fill-opacity:1;stroke:none;stroke-width:0.291999;stroke-dasharray:none;stroke-opacity:1;paint-order:markers fill stroke"
       x="81.672844"
       y="103.49689"
       id="text10"><tspan
         sodipodi:role="line"
         id="tspan10"
         style="font-style:normal;font-variant:normal;font-weight:bold;font-stretch:normal;font-size:6.35px;font-family:'Century Gothic';-inkscape-font-specification:'Century Gothic, Bold';font-variant-ligatures:normal;font-variant-caps:normal;font-variant-numeric:normal;font-variant-east-asian:normal;fill:#333333;stroke-width:0.292"
         x="81.672844"
         y="103.49689">Nexus</tspan></text>
    <path
       id="circle9"
       style="fill:#4d4d4d;fill-opacity:1;stroke:#00cecb;stroke-width:3.51147;stroke-dasharray:none;stroke-opacity:1;paint-order:fill markers stroke"
       d="m 39.371215,195.32155 c 8.315791,22.5071 35.71816,35.69503 58.469736,27.97667 21.941279,-6.54991 37.133339,-30.77444 32.645169,-53.37231 -3.42916,-21.44906 -23.21145,-39.33918 -45.116548,-39.52877 -20.070687,-0.93862 -40.313011,12.22806 -46.462574,31.57011 -3.856176,10.68525 -3.790241,22.79399 0.464205,33.35429 z"
       inkscape:export-filename="..\public\drawer-logo-dark-mode.png"
       inkscape:export-xdpi="96"
       inkscape:export-ydpi="96" />
    <path
       id="path9"
       style="fill:none;stroke-width:1.22969;paint-order:markers fill stroke"
       d="M 73.525185,142.53204 A 37.827952,37.827952 0 0 1 119.10332,170.54172 37.827952,37.827952 0 0 1 91.093641,216.11986 37.827952,37.827952 0 0 1 45.515507,188.11017 37.827952,37.827952 0 0 1 73.525185,142.53204 Z" />
    <text
       xml:space="preserve"
       style="font-style:normal;font-variant:normal;font-weight:bold;font-stretch:normal;font-size:14.8652px;line-height:normal;font-family:'Century Gothic';-inkscape-font-specification:'Century Gothic, Bold';font-variant-ligatures:normal;font-variant-caps:normal;font-variant-numeric:normal;font-variant-east-asian:normal;text-decoration-color:#000000;letter-spacing:0.929075px;fill:#f9f9f9;fill-opacity:1;stroke:#ffffff;stroke-width:1.05344;stroke-dasharray:none;stroke-opacity:1;paint-order:markers fill stroke"
       id="text9"
       transform="translate(-3.8422039,6.4765482)"><textPath
         xlink:href="#path9"
         id="textPath11"
         style="font-style:normal;font-variant:normal;font-weight:bold;font-stretch:normal;font-size:14.8652px;font-family:'Century Gothic';-inkscape-font-specification:'Century Gothic, Bold';font-variant-ligatures:normal;font-variant-caps:normal;font-variant-numeric:normal;font-variant-east-asian:normal;letter-spacing:0.929075px;fill:#f9f9f9;stroke:#ffffff;stroke-width:1.05344;stroke-dasharray:none;stroke-opacity:1">STELLAR</textPath></text>
    <text
       xml:space="preserve"
       style="font-style:normal;font-variant:normal;font-weight:bold;font-stretch:normal;font-size:14.8652px;line-height:normal;font-family:'Century Gothic';-inkscape-font-specification:'Century Gothic, Bold';font-variant-ligatures:normal;font-variant-caps:normal;font-variant-numeric:normal;font-variant-east-asian:normal;text-decoration-color:#000000;letter-spacing:2.78723px;fill:#ffffff;fill-opacity:1;stroke:#ffffff;stroke-width:1.05344;stroke-dasharray:none;stroke-opacity:1;paint-order:markers fill stroke"
       id="text9-9"
       transform="translate(4.1372454,-5.145157)"><textPath
         xlink:href="#circle9"
         id="textPath12"
         style="font-style:normal;font-variant:normal;font-weight:bold;font-stretch:normal;font-size:14.8652px;font-family:'Century Gothic';-inkscape-font-specification:'Century Gothic, Bold';font-variant-ligatures:normal;font-variant-caps:normal;font-variant-numeric:normal;font-variant-east-asian:normal;letter-spacing:2.78723px;fill:#ffffff;stroke:#ffffff;stroke-width:1.05344;stroke-dasharray:none;stroke-opacity:1">NEXUS</textPath></text>
    <g
       id="g13"
       transform="matrix(2.5795966,0,0,2.5795966,-250.2573,16.229408)">
      <g
         id="g14"
         transform="translate(26.664798,-13.013556)">
        <path
           id="path12"
           style="fill:#ff5e5b;fill-opacity:1;stroke:none;stroke-width:0.284446;paint-order:markers fill stroke"
           d="m 95.625611,69.841675 a 9.021903,9.021903 0 0 0 -2.032438,5.678206 9.021903,9.021903 0 0 0 9.022187,9.022188 9.021903,9.021903 0 0 0 7.43055,-3.93206 z" />
        <ellipse
           style="fill:#ffed66;fill-opacity:1;stroke:#d4aa00;stroke-width:0.534001;stroke-opacity:1;-inkscape-stroke:none"
           id="ellipse12"
           cx="127.43979"
           cy="-1.105405"
           rx="14.716801"
           ry="2.5887241"
           transform="matrix(0.80125226,0.59832668,-0.61465243,0.78879807,0,0)" />
        <path
           id="path13"
           style="fill:#ff5e5b;fill-opacity:1;stroke:none;stroke-width:0.284446;paint-order:markers fill stroke"
           d="m 95.625611,69.841675 14.420299,10.768334 a 9.021903,9.021903 0 0 0 1.59112,-5.090128 9.021903,9.021903 0 0 0 -9.02167,-9.021672 9.021903,9.021903 0 0 0 -6.989749,3.343466 z" />
      </g>
    </g>
    <circle
       style="fill:#00cecb;fill-opacity:1;stroke:none;stroke-width:3.51147;stroke-dasharray:none;stroke-opacity:1;paint-order:fill markers stroke"
       id="path14"
       cx="49.197227"
       cy="172.71037"
       r="3.185272" />
    <circle
       style="fill:#00cecb;fill-opacity:1;stroke:none;stroke-width:3.51147;stroke-dasharray:none;stroke-opacity:1;paint-order:fill markers stroke"
       id="circle14"
       cx="87.88662"
       cy="169.42662"
       r="3.185272" />
    <circle
       style="fill:#00cecb;fill-opacity:1;stroke:none;stroke-width:3.51147;stroke-dasharray:none;stroke-opacity:1;paint-order:fill markers stroke"
       id="circle16"
       cx="100.00619"
       cy="207.03673"
       r="3.185272" />
  </g>
</svg>
