<?xml version="1.0" encoding="UTF-8" standalone="no"?>
<!-- Created with Inkscape (http://www.inkscape.org/) -->

<svg
   width="69.065811mm"
   height="57.120434mm"
   viewBox="0 0 69.065811 57.120434"
   version="1.1"
   id="svg1"
   inkscape:version="1.3.2 (091e20e, 2023-11-25, custom)"
   sodipodi:docname="StellarNexusLogos2.svg"
   xmlns:inkscape="http://www.inkscape.org/namespaces/inkscape"
   xmlns:sodipodi="http://sodipodi.sourceforge.net/DTD/sodipodi-0.dtd"
   xmlns:xlink="http://www.w3.org/1999/xlink"
   xmlns="http://www.w3.org/2000/svg"
   xmlns:svg="http://www.w3.org/2000/svg">
  <sodipodi:namedview
     id="namedview1"
     pagecolor="#ffffff"
     bordercolor="#000000"
     borderopacity="0.25"
     inkscape:showpageshadow="2"
     inkscape:pageopacity="0.0"
     inkscape:pagecheckerboard="0"
     inkscape:deskcolor="#d1d1d1"
     inkscape:document-units="mm"
     inkscape:zoom="1.0570195"
     inkscape:cx="260.1655"
     inkscape:cy="548.23966"
     inkscape:window-width="1920"
     inkscape:window-height="1017"
     inkscape:window-x="-8"
     inkscape:window-y="-8"
     inkscape:window-maximized="1"
     inkscape:current-layer="layer1" />
  <defs
     id="defs1" />
  <g
     inkscape:label="Layer 1"
     inkscape:groupmode="layer"
     id="layer1"
     transform="translate(106.17697,-153.10157)">
    <path
       id="circle9"
       style="fill:#4d4d4d;fill-opacity:1;stroke:#00cecb;stroke-width:3.51147;stroke-dasharray:none;stroke-opacity:1;paint-order:fill markers stroke"
       d="m 39.371215,195.32155 c 8.315791,22.5071 35.71816,35.69503 58.469736,27.97667 21.941279,-6.54991 37.133339,-30.77444 32.645169,-53.37231 -3.42916,-21.44906 -23.21145,-39.33918 -45.116548,-39.52877 -20.070687,-0.93862 -40.313011,12.22806 -46.462574,31.57011 -3.856176,10.68525 -3.790241,22.79399 0.464205,33.35429 z"
       inkscape:export-filename="StellarNexusLogo.svg"
       inkscape:export-xdpi="96"
       inkscape:export-ydpi="96" />
    <path
       id="path9"
       style="fill:none;stroke-width:1.22969;paint-order:markers fill stroke"
       d="M 73.525185,142.53204 A 37.827952,37.827952 0 0 1 119.10332,170.54172 37.827952,37.827952 0 0 1 91.093641,216.11986 37.827952,37.827952 0 0 1 45.515507,188.11017 37.827952,37.827952 0 0 1 73.525185,142.53204 Z" />
    <text
       xml:space="preserve"
       style="font-style:normal;font-variant:normal;font-weight:bold;font-stretch:normal;font-size:14.8652px;line-height:normal;font-family:'Century Gothic';-inkscape-font-specification:'Century Gothic, Bold';font-variant-ligatures:normal;font-variant-caps:normal;font-variant-numeric:normal;font-variant-east-asian:normal;text-decoration-color:#000000;letter-spacing:0.929075px;fill:#f9f9f9;fill-opacity:1;stroke:#ffffff;stroke-width:1.05344;stroke-dasharray:none;stroke-opacity:1;paint-order:markers fill stroke"
       id="text9"
       transform="translate(-3.8422039,6.4765482)"><textPath
         xlink:href="#path9"
         id="textPath11"
         style="font-style:normal;font-variant:normal;font-weight:bold;font-stretch:normal;font-size:14.8652px;font-family:'Century Gothic';-inkscape-font-specification:'Century Gothic, Bold';font-variant-ligatures:normal;font-variant-caps:normal;font-variant-numeric:normal;font-variant-east-asian:normal;letter-spacing:0.929075px;fill:#f9f9f9;stroke:#ffffff;stroke-width:1.05344;stroke-dasharray:none;stroke-opacity:1">STELLAR</textPath></text>
    <text
       xml:space="preserve"
       style="font-style:normal;font-variant:normal;font-weight:bold;font-stretch:normal;font-size:14.8652px;line-height:normal;font-family:'Century Gothic';-inkscape-font-specification:'Century Gothic, Bold';font-variant-ligatures:normal;font-variant-caps:normal;font-variant-numeric:normal;font-variant-east-asian:normal;text-decoration-color:#000000;letter-spacing:2.78723px;fill:#ffffff;fill-opacity:1;stroke:#ffffff;stroke-width:1.05344;stroke-dasharray:none;stroke-opacity:1;paint-order:markers fill stroke"
       id="text9-9"
       transform="translate(4.1372454,-5.145157)"><textPath
         xlink:href="#circle9"
         id="textPath12"
         style="font-style:normal;font-variant:normal;font-weight:bold;font-stretch:normal;font-size:14.8652px;font-family:'Century Gothic';-inkscape-font-specification:'Century Gothic, Bold';font-variant-ligatures:normal;font-variant-caps:normal;font-variant-numeric:normal;font-variant-east-asian:normal;letter-spacing:2.78723px;fill:#ffffff;stroke:#ffffff;stroke-width:1.05344;stroke-dasharray:none;stroke-opacity:1">NEXUS</textPath></text>
    <path
       id="path10"
       style="fill:none;stroke-width:1.22969;paint-order:markers fill stroke"
       d="m -78.663745,142.53204 a 37.827952,37.827952 0 0 1 45.578135,28.00968 37.827952,37.827952 0 0 1 -28.009679,45.57814 37.827952,37.827952 0 0 1 -45.578131,-28.00969 37.827952,37.827952 0 0 1 28.009675,-45.57813 z" />
    <g
       id="g17"
       transform="matrix(2.5795966,0,0,2.5795966,-402.44623,16.229408)">
      <g
         id="g16"
         transform="translate(26.664798,-13.013556)">
        <path
           id="path15"
           style="fill:#ff5e5b;fill-opacity:1;stroke:none;stroke-width:0.284446;paint-order:markers fill stroke"
           d="m 95.625611,69.841675 a 9.021903,9.021903 0 0 0 -2.032438,5.678206 9.021903,9.021903 0 0 0 9.022187,9.022188 9.021903,9.021903 0 0 0 7.43055,-3.93206 z" />
        <ellipse
           style="fill:#ffed66;fill-opacity:1;stroke:#d4aa00;stroke-width:0.534001;stroke-opacity:1;-inkscape-stroke:none"
           id="ellipse15"
           cx="127.43979"
           cy="-1.105405"
           rx="14.716801"
           ry="2.5887241"
           transform="matrix(0.80125226,0.59832668,-0.61465243,0.78879807,0,0)" />
        <path
           id="path16"
           style="fill:#ff5e5b;fill-opacity:1;stroke:none;stroke-width:0.284446;paint-order:markers fill stroke"
           d="m 95.625611,69.841675 14.420299,10.768334 a 9.021903,9.021903 0 0 0 1.59112,-5.090128 9.021903,9.021903 0 0 0 -9.02167,-9.021672 9.021903,9.021903 0 0 0 -6.989749,3.343466 z" />
      </g>
    </g>
    <circle
       style="fill:#ffffea;fill-opacity:1;stroke:none;stroke-width:3.51147;stroke-dasharray:none;stroke-opacity:1;paint-order:fill markers stroke"
       id="circle17"
       cx="-102.9917"
       cy="172.71037"
       r="3.185272" />
    <circle
       style="fill:#ffffea;fill-opacity:1;stroke:none;stroke-width:3.51147;stroke-dasharray:none;stroke-opacity:1;paint-order:fill markers stroke"
       id="circle18"
       cx="-64.302307"
       cy="169.42662"
       r="3.185272" />
    <circle
       style="fill:#ffffea;fill-opacity:1;stroke:none;stroke-width:3.51147;stroke-dasharray:none;stroke-opacity:1;paint-order:fill markers stroke"
       id="circle19"
       cx="-52.182743"
       cy="207.03673"
       r="3.185272" />
  </g>
</svg>
