<svg width="21" height="22" viewBox="0 0 21 22" fill="none" xmlns="http://www.w3.org/2000/svg">
<path fill-rule="evenodd" clip-rule="evenodd" d="M13.7663 7.58669C13.6897 7.45517 13.7007 7.29078 13.7882 7.15926L17.4445 1.73424C17.543 1.58081 17.554 1.39449 17.4664 1.24106C17.3788 1.07666 17.2146 0.988987 17.0395 0.988987H15.6164C15.4631 0.988987 15.3099 1.0657 15.2113 1.20818L10.942 7.56477C10.8326 7.72916 10.6574 7.81684 10.4604 7.81684H9.92398C9.72693 7.81684 9.55178 7.7182 9.44231 7.56477L5.19491 1.19722C5.10734 1.05474 4.94314 0.978027 4.78988 0.978027H3.36678C3.19163 0.978027 3.01648 1.07666 2.93985 1.24106C2.85228 1.40545 2.87417 1.59177 2.96175 1.73424L6.61801 7.17022C6.70559 7.29078 6.71653 7.45517 6.63991 7.58669C6.56328 7.72916 6.43192 7.80588 6.27866 7.80588H0.684789C0.411116 7.80588 0.203125 8.02507 0.203125 8.2881V9.47174C0.203125 9.74574 0.422063 9.95397 0.684789 9.95397H19.7215C19.9951 9.95397 20.2031 9.73478 20.2031 9.47174V8.2881C20.2031 8.03603 20.017 7.83876 19.7762 7.80588C19.7543 7.80588 19.7324 7.80588 19.7105 7.80588H14.1276C13.9743 7.80588 13.832 7.72916 13.7663 7.58669ZM9.45326 14.568L5.18397 20.9246C5.09639 21.067 4.93219 21.1438 4.77893 21.1438H3.35583C3.18068 21.1438 3.01648 21.0451 2.9289 20.8917C2.84133 20.7382 2.85228 20.541 2.9508 20.3985L6.59612 14.9735C6.68369 14.842 6.69464 14.6885 6.61801 14.5461C6.54138 14.4145 6.41002 14.3269 6.25676 14.3269H0.684789C0.422063 14.3269 0.203125 14.1186 0.203125 13.8446V12.661C0.203125 12.398 0.411116 12.1788 0.684789 12.1788H19.6777C19.6777 12.1788 19.7105 12.1788 19.7215 12.1788C19.9842 12.1788 20.2031 12.387 20.2031 12.661V13.8446C20.2031 14.1077 19.9951 14.3269 19.7215 14.3269H14.1385C13.9743 14.3269 13.843 14.4036 13.7773 14.5461C13.7007 14.6885 13.7116 14.842 13.7992 14.9625L17.4555 20.3985C17.543 20.541 17.5649 20.7273 17.4773 20.8917C17.3898 21.0561 17.2256 21.1547 17.0504 21.1547H15.6273C15.4631 21.1547 15.3208 21.078 15.2332 20.9465L10.9639 14.5899C10.8545 14.4255 10.6793 14.3378 10.4823 14.3378H9.94587C9.74883 14.3378 9.57368 14.4365 9.46421 14.5899L9.45326 14.568Z" fill="#141414" style="fill:#141414;fill:color(display-p3 0.0784 0.0784 0.0784);fill-opacity:1;"/>
</svg>
